<svg width="20" height="20" xmlns="http://www.w3.org/2000/svg"><g fill="#0C1014" fill-rule="evenodd"><path d="M8.613 17.23a8.55 8.55 0 01-6.088-2.522A8.557 8.557 0 010 8.613a8.564 8.564 0 012.523-6.089A8.554 8.554 0 018.613 0c2.299 0 4.459.896 6.086 2.524 3.357 3.359 3.357 8.823 0 12.184a8.549 8.549 0 01-6.086 2.522m0-15.515a6.845 6.845 0 00-4.877 2.021 6.85 6.85 0 00-2.019 4.877c0 1.845.716 3.581 2.019 4.879a6.835 6.835 0 004.877 2.023 6.84 6.84 0 004.873-2.021c2.691-2.691 2.691-7.07.002-9.759a6.849 6.849 0 00-4.875-2.02"/><path d="M14.7 13.496l4.835 4.84-1.212 1.212-4.836-4.84z"/></g></svg>